<svg width="458" height="61" viewBox="0 0 458 61" fill="none" xmlns="http://www.w3.org/2000/svg">
<path d="M1.38338 23.672C1.38338 21.4533 1.84204 19.48 2.75938 17.752C3.69804 16.0027 5.02071 14.648 6.72738 13.688C8.43404 12.7067 10.3967 12.216 12.6154 12.216C15.4314 12.216 17.7994 12.9733 19.7194 14.488C21.6394 15.9813 22.8767 18.0187 23.4314 20.6H16.6794C16.274 19.7467 15.7087 19.096 14.9834 18.648C14.2794 18.2 13.458 17.976 12.5194 17.976C11.0687 17.976 9.90604 18.4987 9.03138 19.544C8.17804 20.568 7.75138 21.944 7.75138 23.672C7.75138 25.4213 8.17804 26.8187 9.03138 27.864C9.90604 28.888 11.0687 29.4 12.5194 29.4C13.458 29.4 14.2794 29.176 14.9834 28.728C15.7087 28.28 16.274 27.6293 16.6794 26.776H23.4314C22.8767 29.3573 21.6394 31.4053 19.7194 32.92C17.7994 34.4133 15.4314 35.16 12.6154 35.16C10.3967 35.16 8.43404 34.68 6.72738 33.72C5.02071 32.7387 3.69804 31.384 2.75938 29.656C1.84204 27.9067 1.38338 25.912 1.38338 23.672ZM38.2094 16.888C40.2574 16.888 41.8787 17.5813 43.0734 18.968C44.2894 20.3333 44.8974 22.1893 44.8974 24.536V35H38.6254V25.368C38.6254 24.344 38.3587 23.544 37.8254 22.968C37.292 22.3707 36.5774 22.072 35.6814 22.072C34.7427 22.072 34.0067 22.3707 33.4734 22.968C32.94 23.544 32.6734 24.344 32.6734 25.368V35H26.4014V11.32H32.6734V19.608C33.228 18.7973 33.9747 18.1467 34.9134 17.656C35.8734 17.144 36.972 16.888 38.2094 16.888ZM65.4909 25.816C65.4909 26.3067 65.4589 26.7973 65.3949 27.288H53.5229C53.5869 28.2693 53.8535 29.0053 54.3229 29.496C54.8135 29.9653 55.4322 30.2 56.1789 30.2C57.2242 30.2 57.9709 29.7307 58.4189 28.792H65.1069C64.8295 30.0293 64.2855 31.1387 63.4749 32.12C62.6855 33.08 61.6829 33.8373 60.4669 34.392C59.2509 34.9467 57.9069 35.224 56.4349 35.224C54.6642 35.224 53.0855 34.8507 51.6989 34.104C50.3335 33.3573 49.2562 32.2907 48.4669 30.904C47.6989 29.5173 47.3149 27.8853 47.3149 26.008C47.3149 24.1307 47.6989 22.5093 48.4669 21.144C49.2349 19.7573 50.3015 18.6907 51.6669 17.944C53.0535 17.1973 54.6429 16.824 56.4349 16.824C58.2055 16.824 59.7735 17.1867 61.1389 17.912C62.5042 18.6373 63.5709 19.6827 64.3389 21.048C65.1069 22.392 65.4909 23.9813 65.4909 25.816ZM59.0909 24.248C59.0909 23.48 58.8349 22.8827 58.3229 22.456C57.8109 22.008 57.1709 21.784 56.4029 21.784C55.6349 21.784 55.0055 21.9973 54.5149 22.424C54.0242 22.8293 53.7042 23.4373 53.5549 24.248H59.0909ZM67.0336 26.008C67.0336 24.152 67.4176 22.5307 68.1856 21.144C68.9536 19.7573 70.0203 18.6907 71.3856 17.944C72.7723 17.1973 74.351 16.824 76.1216 16.824C78.4043 16.824 80.3243 17.4533 81.8816 18.712C83.439 19.9493 84.4416 21.688 84.8896 23.928H78.2336C77.8496 22.7547 77.103 22.168 75.9936 22.168C75.2043 22.168 74.575 22.4987 74.1056 23.16C73.6576 23.8 73.4336 24.7493 73.4336 26.008C73.4336 27.2667 73.6576 28.2267 74.1056 28.888C74.575 29.5493 75.2043 29.88 75.9936 29.88C77.1243 29.88 77.871 29.2933 78.2336 28.12H84.8896C84.4416 30.3387 83.439 32.0773 81.8816 33.336C80.3243 34.5947 78.4043 35.224 76.1216 35.224C74.351 35.224 72.7723 34.8507 71.3856 34.104C70.0203 33.3573 68.9536 32.2907 68.1856 30.904C67.4176 29.5173 67.0336 27.8853 67.0336 26.008ZM98.7271 35L93.7671 27.64V35H87.4951V11.32H93.7671V24.088L98.7271 17.048H106.247L99.1751 26.072L106.375 35H98.7271ZM116.566 35.224C114.774 35.224 113.163 34.8507 111.734 34.104C110.326 33.3573 109.217 32.2907 108.406 30.904C107.595 29.5173 107.19 27.8853 107.19 26.008C107.19 24.152 107.595 22.5307 108.406 21.144C109.238 19.7573 110.358 18.6907 111.766 17.944C113.195 17.1973 114.806 16.824 116.598 16.824C118.39 16.824 119.99 17.1973 121.398 17.944C122.827 18.6907 123.947 19.7573 124.758 21.144C125.59 22.5307 126.006 24.152 126.006 26.008C126.006 27.864 125.59 29.496 124.758 30.904C123.947 32.2907 122.827 33.3573 121.398 34.104C119.969 34.8507 118.358 35.224 116.566 35.224ZM116.566 29.784C117.441 29.784 118.166 29.464 118.742 28.824C119.339 28.1627 119.638 27.224 119.638 26.008C119.638 24.792 119.339 23.864 118.742 23.224C118.166 22.584 117.451 22.264 116.598 22.264C115.745 22.264 115.03 22.584 114.454 23.224C113.878 23.864 113.59 24.792 113.59 26.008C113.59 27.2453 113.867 28.184 114.422 28.824C114.977 29.464 115.691 29.784 116.566 29.784ZM146.926 17.048V35H140.622V32.44C140.088 33.2507 139.352 33.912 138.414 34.424C137.475 34.9147 136.398 35.16 135.182 35.16C133.091 35.16 131.438 34.4773 130.222 33.112C129.027 31.7253 128.43 29.848 128.43 27.48V17.048H134.67V26.68C134.67 27.704 134.936 28.5147 135.47 29.112C136.024 29.688 136.75 29.976 137.646 29.976C138.563 29.976 139.288 29.688 139.822 29.112C140.355 28.5147 140.622 27.704 140.622 26.68V17.048H146.926ZM161.087 29.656V35H158.367C153.78 35 151.487 32.728 151.487 28.184V22.264H149.279V17.048H151.487V12.696H157.791V17.048H161.055V22.264H157.791V28.28C157.791 28.7707 157.898 29.1227 158.111 29.336C158.346 29.5493 158.73 29.656 159.263 29.656H161.087ZM183.945 21.304V26.52H169.449V21.304H183.945ZM210.01 12.44V17.432H200.986V21.4H207.642V26.168H200.986V35H194.714V12.44H210.01ZM215.819 15.384C214.71 15.384 213.814 15.0853 213.131 14.488C212.47 13.8693 212.139 13.1013 212.139 12.184C212.139 11.2453 212.47 10.4667 213.131 9.848C213.814 9.22933 214.71 8.92 215.819 8.92C216.907 8.92 217.782 9.22933 218.443 9.848C219.126 10.4667 219.467 11.2453 219.467 12.184C219.467 13.1013 219.126 13.8693 218.443 14.488C217.782 15.0853 216.907 15.384 215.819 15.384ZM218.923 17.048V35H212.651V17.048H218.923ZM234.239 16.888C236.308 16.888 237.951 17.5813 239.167 18.968C240.383 20.3333 240.991 22.1893 240.991 24.536V35H234.719V25.368C234.719 24.344 234.452 23.544 233.919 22.968C233.386 22.3707 232.671 22.072 231.775 22.072C230.836 22.072 230.1 22.3707 229.567 22.968C229.034 23.544 228.767 24.344 228.767 25.368V35H222.495V17.048H228.767V19.608C229.322 18.7973 230.068 18.1467 231.007 17.656C231.946 17.144 233.023 16.888 234.239 16.888ZM243.409 26.008C243.409 24.152 243.739 22.5307 244.401 21.144C245.083 19.7573 246.001 18.6907 247.153 17.944C248.326 17.1973 249.627 16.824 251.057 16.824C252.294 16.824 253.361 17.0693 254.257 17.56C255.153 18.0507 255.846 18.712 256.337 19.544V17.048H262.609V35H256.337V32.504C255.846 33.336 255.142 33.9973 254.225 34.488C253.329 34.9787 252.273 35.224 251.057 35.224C249.627 35.224 248.326 34.8507 247.153 34.104C246.001 33.3573 245.083 32.2907 244.401 30.904C243.739 29.496 243.409 27.864 243.409 26.008ZM256.337 26.008C256.337 24.856 256.017 23.9493 255.377 23.288C254.758 22.6267 253.99 22.296 253.073 22.296C252.134 22.296 251.355 22.6267 250.737 23.288C250.118 23.928 249.809 24.8347 249.809 26.008C249.809 27.16 250.118 28.0773 250.737 28.76C251.355 29.4213 252.134 29.752 253.073 29.752C253.99 29.752 254.758 29.4213 255.377 28.76C256.017 28.0987 256.337 27.1813 256.337 26.008ZM272.455 11.32V35H266.183V11.32H272.455ZM279.194 15.384C278.085 15.384 277.189 15.0853 276.506 14.488C275.845 13.8693 275.514 13.1013 275.514 12.184C275.514 11.2453 275.845 10.4667 276.506 9.848C277.189 9.22933 278.085 8.92 279.194 8.92C280.282 8.92 281.157 9.22933 281.818 9.848C282.501 10.4667 282.842 11.2453 282.842 12.184C282.842 13.1013 282.501 13.8693 281.818 14.488C281.157 15.0853 280.282 15.384 279.194 15.384ZM282.298 17.048V35H276.026V17.048H282.298ZM291.822 29.784H299.47V35H284.91V30.04L292.046 22.264H284.974V17.048H299.214V22.008L291.822 29.784ZM301.065 26.008C301.065 24.152 301.396 22.5307 302.057 21.144C302.74 19.7573 303.657 18.6907 304.809 17.944C305.982 17.1973 307.284 16.824 308.713 16.824C309.95 16.824 311.017 17.0693 311.913 17.56C312.809 18.0507 313.502 18.712 313.993 19.544V17.048H320.265V35H313.993V32.504C313.502 33.336 312.798 33.9973 311.881 34.488C310.985 34.9787 309.929 35.224 308.713 35.224C307.284 35.224 305.982 34.8507 304.809 34.104C303.657 33.3573 302.74 32.2907 302.057 30.904C301.396 29.496 301.065 27.864 301.065 26.008ZM313.993 26.008C313.993 24.856 313.673 23.9493 313.033 23.288C312.414 22.6267 311.646 22.296 310.729 22.296C309.79 22.296 309.012 22.6267 308.393 23.288C307.774 23.928 307.465 24.8347 307.465 26.008C307.465 27.16 307.774 28.0773 308.393 28.76C309.012 29.4213 309.79 29.752 310.729 29.752C311.646 29.752 312.414 29.4213 313.033 28.76C313.673 28.0987 313.993 27.1813 313.993 26.008ZM330.111 20.216C330.815 19.192 331.668 18.3813 332.671 17.784C333.674 17.1867 334.751 16.888 335.903 16.888V23.576H334.143C332.778 23.576 331.764 23.8427 331.103 24.376C330.442 24.9093 330.111 25.8373 330.111 27.16V35H323.839V17.048H330.111V20.216ZM350.548 19.544C351.039 18.712 351.732 18.0507 352.628 17.56C353.524 17.0693 354.58 16.824 355.796 16.824C357.226 16.824 358.516 17.1973 359.668 17.944C360.842 18.6907 361.759 19.7573 362.42 21.144C363.103 22.5307 363.444 24.152 363.444 26.008C363.444 27.864 363.103 29.496 362.42 30.904C361.759 32.2907 360.842 33.3573 359.668 34.104C358.516 34.8507 357.226 35.224 355.796 35.224C354.58 35.224 353.524 34.9787 352.628 34.488C351.754 33.9973 351.06 33.336 350.548 32.504V43.576H344.276V17.048H350.548V19.544ZM357.076 26.008C357.076 24.8347 356.756 23.928 356.116 23.288C355.498 22.6267 354.73 22.296 353.812 22.296C352.895 22.296 352.116 22.6267 351.476 23.288C350.858 23.9493 350.548 24.856 350.548 26.008C350.548 27.1813 350.858 28.0987 351.476 28.76C352.116 29.4213 352.895 29.752 353.812 29.752C354.73 29.752 355.498 29.4213 356.116 28.76C356.756 28.0773 357.076 27.16 357.076 26.008ZM383.178 25.816C383.178 26.3067 383.146 26.7973 383.082 27.288H371.21C371.274 28.2693 371.541 29.0053 372.01 29.496C372.501 29.9653 373.12 30.2 373.866 30.2C374.912 30.2 375.658 29.7307 376.106 28.792H382.794C382.517 30.0293 381.973 31.1387 381.162 32.12C380.373 33.08 379.37 33.8373 378.154 34.392C376.938 34.9467 375.594 35.224 374.122 35.224C372.352 35.224 370.773 34.8507 369.386 34.104C368.021 33.3573 366.944 32.2907 366.154 30.904C365.386 29.5173 365.002 27.8853 365.002 26.008C365.002 24.1307 365.386 22.5093 366.154 21.144C366.922 19.7573 367.989 18.6907 369.354 17.944C370.741 17.1973 372.33 16.824 374.122 16.824C375.893 16.824 377.461 17.1867 378.826 17.912C380.192 18.6373 381.258 19.6827 382.026 21.048C382.794 22.392 383.178 23.9813 383.178 25.816ZM376.778 24.248C376.778 23.48 376.522 22.8827 376.01 22.456C375.498 22.008 374.858 21.784 374.09 21.784C373.322 21.784 372.693 21.9973 372.202 22.424C371.712 22.8293 371.392 23.4373 371.242 24.248H376.778ZM384.721 26.008C384.721 24.152 385.052 22.5307 385.713 21.144C386.396 19.7573 387.324 18.6907 388.497 17.944C389.67 17.1973 390.972 16.824 392.401 16.824C393.553 16.824 394.577 17.0693 395.473 17.56C396.39 18.0293 397.105 18.68 397.617 19.512V11.32H403.921V35H397.617V32.504C397.126 33.336 396.433 33.9973 395.537 34.488C394.641 34.9787 393.585 35.224 392.369 35.224C390.94 35.224 389.638 34.8507 388.465 34.104C387.313 33.3573 386.396 32.2907 385.713 30.904C385.052 29.496 384.721 27.864 384.721 26.008ZM397.649 26.008C397.649 24.856 397.329 23.9493 396.689 23.288C396.07 22.6267 395.302 22.296 394.385 22.296C393.446 22.296 392.668 22.6267 392.049 23.288C391.43 23.928 391.121 24.8347 391.121 26.008C391.121 27.16 391.43 28.0773 392.049 28.76C392.668 29.4213 393.446 29.752 394.385 29.752C395.302 29.752 396.07 29.4213 396.689 28.76C397.329 28.0987 397.649 27.1813 397.649 26.008ZM410.663 15.384C409.554 15.384 408.658 15.0853 407.975 14.488C407.314 13.8693 406.983 13.1013 406.983 12.184C406.983 11.2453 407.314 10.4667 407.975 9.848C408.658 9.22933 409.554 8.92 410.663 8.92C411.751 8.92 412.626 9.22933 413.287 9.848C413.97 10.4667 414.311 11.2453 414.311 12.184C414.311 13.1013 413.97 13.8693 413.287 14.488C412.626 15.0853 411.751 15.384 410.663 15.384ZM413.767 17.048V35H407.495V17.048H413.767ZM416.315 26.008C416.315 24.152 416.646 22.5307 417.307 21.144C417.99 19.7573 418.918 18.6907 420.091 17.944C421.264 17.1973 422.566 16.824 423.995 16.824C425.147 16.824 426.171 17.0693 427.067 17.56C427.984 18.0293 428.699 18.68 429.211 19.512V11.32H435.515V35H429.211V32.504C428.72 33.336 428.027 33.9973 427.131 34.488C426.235 34.9787 425.179 35.224 423.963 35.224C422.534 35.224 421.232 34.8507 420.059 34.104C418.907 33.3573 417.99 32.2907 417.307 30.904C416.646 29.496 416.315 27.864 416.315 26.008ZM429.243 26.008C429.243 24.856 428.923 23.9493 428.283 23.288C427.664 22.6267 426.896 22.296 425.979 22.296C425.04 22.296 424.262 22.6267 423.643 23.288C423.024 23.928 422.715 24.8347 422.715 26.008C422.715 27.16 423.024 28.0773 423.643 28.76C424.262 29.4213 425.04 29.752 425.979 29.752C426.896 29.752 427.664 29.4213 428.283 28.76C428.923 28.0987 429.243 27.1813 429.243 26.008ZM447.441 35.224C445.649 35.224 444.038 34.8507 442.609 34.104C441.201 33.3573 440.092 32.2907 439.281 30.904C438.47 29.5173 438.065 27.8853 438.065 26.008C438.065 24.152 438.47 22.5307 439.281 21.144C440.113 19.7573 441.233 18.6907 442.641 17.944C444.07 17.1973 445.681 16.824 447.473 16.824C449.265 16.824 450.865 17.1973 452.273 17.944C453.702 18.6907 454.822 19.7573 455.633 21.144C456.465 22.5307 456.881 24.152 456.881 26.008C456.881 27.864 456.465 29.496 455.633 30.904C454.822 32.2907 453.702 33.3573 452.273 34.104C450.844 34.8507 449.233 35.224 447.441 35.224ZM447.441 29.784C448.316 29.784 449.041 29.464 449.617 28.824C450.214 28.1627 450.513 27.224 450.513 26.008C450.513 24.792 450.214 23.864 449.617 23.224C449.041 22.584 448.326 22.264 447.473 22.264C446.62 22.264 445.905 22.584 445.329 23.224C444.753 23.864 444.465 24.792 444.465 26.008C444.465 27.2453 444.742 28.184 445.297 28.824C445.852 29.464 446.566 29.784 447.441 29.784Z" fill="#61A120"/>
<rect x="201" y="57" width="57" height="4" fill="#61A120"/>
</svg>
