<svg width="307" height="61" viewBox="0 0 307 61" fill="none" xmlns="http://www.w3.org/2000/svg">
<path d="M1.36775 23.672C1.36775 21.4533 1.82642 19.48 2.74375 17.752C3.68242 16.0027 5.00508 14.648 6.71175 13.688C8.41842 12.7067 10.3811 12.216 12.5998 12.216C15.4158 12.216 17.7838 12.9733 19.7038 14.488C21.6238 15.9813 22.8611 18.0187 23.4158 20.6H16.6638C16.2584 19.7467 15.6931 19.096 14.9678 18.648C14.2638 18.2 13.4424 17.976 12.5038 17.976C11.0531 17.976 9.89042 18.4987 9.01575 19.544C8.16242 20.568 7.73575 21.944 7.73575 23.672C7.73575 25.4213 8.16242 26.8187 9.01575 27.864C9.89042 28.888 11.0531 29.4 12.5038 29.4C13.4424 29.4 14.2638 29.176 14.9678 28.728C15.6931 28.28 16.2584 27.6293 16.6638 26.776H23.4158C22.8611 29.3573 21.6238 31.4053 19.7038 32.92C17.7838 34.4133 15.4158 35.16 12.5998 35.16C10.3811 35.16 8.41842 34.68 6.71175 33.72C5.00508 32.7387 3.68242 31.384 2.74375 29.656C1.82642 27.9067 1.36775 25.912 1.36775 23.672ZM38.1938 16.888C40.2418 16.888 41.8631 17.5813 43.0578 18.968C44.2738 20.3333 44.8818 22.1893 44.8818 24.536V35H38.6098V25.368C38.6098 24.344 38.3431 23.544 37.8098 22.968C37.2764 22.3707 36.5618 22.072 35.6658 22.072C34.7271 22.072 33.9911 22.3707 33.4578 22.968C32.9244 23.544 32.6578 24.344 32.6578 25.368V35H26.3858V11.32H32.6578V19.608C33.2124 18.7973 33.9591 18.1467 34.8978 17.656C35.8578 17.144 36.9564 16.888 38.1938 16.888ZM65.4753 25.816C65.4753 26.3067 65.4433 26.7973 65.3793 27.288H53.5073C53.5713 28.2693 53.8379 29.0053 54.3073 29.496C54.7979 29.9653 55.4166 30.2 56.1633 30.2C57.2086 30.2 57.9553 29.7307 58.4033 28.792H65.0913C64.8139 30.0293 64.2699 31.1387 63.4593 32.12C62.6699 33.08 61.6673 33.8373 60.4513 34.392C59.2353 34.9467 57.8913 35.224 56.4193 35.224C54.6486 35.224 53.0699 34.8507 51.6833 34.104C50.3179 33.3573 49.2406 32.2907 48.4513 30.904C47.6833 29.5173 47.2993 27.8853 47.2993 26.008C47.2993 24.1307 47.6833 22.5093 48.4513 21.144C49.2193 19.7573 50.2859 18.6907 51.6513 17.944C53.0379 17.1973 54.6273 16.824 56.4193 16.824C58.1899 16.824 59.7579 17.1867 61.1233 17.912C62.4886 18.6373 63.5553 19.6827 64.3233 21.048C65.0913 22.392 65.4753 23.9813 65.4753 25.816ZM59.0753 24.248C59.0753 23.48 58.8193 22.8827 58.3073 22.456C57.7953 22.008 57.1553 21.784 56.3873 21.784C55.6193 21.784 54.9899 21.9973 54.4993 22.424C54.0086 22.8293 53.6886 23.4373 53.5393 24.248H59.0753ZM67.018 26.008C67.018 24.152 67.402 22.5307 68.17 21.144C68.938 19.7573 70.0047 18.6907 71.37 17.944C72.7567 17.1973 74.3353 16.824 76.106 16.824C78.3887 16.824 80.3087 17.4533 81.866 18.712C83.4233 19.9493 84.426 21.688 84.874 23.928H78.218C77.834 22.7547 77.0873 22.168 75.978 22.168C75.1887 22.168 74.5593 22.4987 74.09 23.16C73.642 23.8 73.418 24.7493 73.418 26.008C73.418 27.2667 73.642 28.2267 74.09 28.888C74.5593 29.5493 75.1887 29.88 75.978 29.88C77.1087 29.88 77.8553 29.2933 78.218 28.12H84.874C84.426 30.3387 83.4233 32.0773 81.866 33.336C80.3087 34.5947 78.3887 35.224 76.106 35.224C74.3353 35.224 72.7567 34.8507 71.37 34.104C70.0047 33.3573 68.938 32.2907 68.17 30.904C67.402 29.5173 67.018 27.8853 67.018 26.008ZM98.7115 35L93.7515 27.64V35H87.4795V11.32H93.7515V24.088L98.7115 17.048H106.232L99.1595 26.072L106.36 35H98.7115ZM116.55 35.224C114.758 35.224 113.148 34.8507 111.718 34.104C110.31 33.3573 109.201 32.2907 108.39 30.904C107.58 29.5173 107.174 27.8853 107.174 26.008C107.174 24.152 107.58 22.5307 108.39 21.144C109.222 19.7573 110.342 18.6907 111.75 17.944C113.18 17.1973 114.79 16.824 116.582 16.824C118.374 16.824 119.974 17.1973 121.382 17.944C122.812 18.6907 123.932 19.7573 124.742 21.144C125.574 22.5307 125.99 24.152 125.99 26.008C125.99 27.864 125.574 29.496 124.742 30.904C123.932 32.2907 122.812 33.3573 121.382 34.104C119.953 34.8507 118.342 35.224 116.55 35.224ZM116.55 29.784C117.425 29.784 118.15 29.464 118.726 28.824C119.324 28.1627 119.622 27.224 119.622 26.008C119.622 24.792 119.324 23.864 118.726 23.224C118.15 22.584 117.436 22.264 116.582 22.264C115.729 22.264 115.014 22.584 114.438 23.224C113.862 23.864 113.574 24.792 113.574 26.008C113.574 27.2453 113.852 28.184 114.406 28.824C114.961 29.464 115.676 29.784 116.55 29.784ZM146.91 17.048V35H140.606V32.44C140.073 33.2507 139.337 33.912 138.398 34.424C137.459 34.9147 136.382 35.16 135.166 35.16C133.075 35.16 131.422 34.4773 130.206 33.112C129.011 31.7253 128.414 29.848 128.414 27.48V17.048H134.654V26.68C134.654 27.704 134.921 28.5147 135.454 29.112C136.009 29.688 136.734 29.976 137.63 29.976C138.547 29.976 139.273 29.688 139.806 29.112C140.339 28.5147 140.606 27.704 140.606 26.68V17.048H146.91ZM161.072 29.656V35H158.352C153.765 35 151.472 32.728 151.472 28.184V22.264H149.264V17.048H151.472V12.696H157.776V17.048H161.04V22.264H157.776V28.28C157.776 28.7707 157.882 29.1227 158.095 29.336C158.33 29.5493 158.714 29.656 159.248 29.656H161.072ZM183.929 21.304V26.52H169.433V21.304H183.929ZM212.522 19.96C212.522 21.3253 212.202 22.5733 211.562 23.704C210.944 24.8133 209.994 25.7093 208.714 26.392C207.456 27.0533 205.909 27.384 204.074 27.384H200.97V35H194.698V12.44H204.074C205.888 12.44 207.424 12.76 208.682 13.4C209.962 14.04 210.922 14.9253 211.562 16.056C212.202 17.1867 212.522 18.488 212.522 19.96ZM203.466 22.392C205.237 22.392 206.122 21.5813 206.122 19.96C206.122 18.3173 205.237 17.496 203.466 17.496H200.97V22.392H203.466ZM232.194 25.816C232.194 26.3067 232.162 26.7973 232.098 27.288H220.226C220.29 28.2693 220.557 29.0053 221.026 29.496C221.517 29.9653 222.135 30.2 222.882 30.2C223.927 30.2 224.674 29.7307 225.122 28.792H231.81C231.533 30.0293 230.989 31.1387 230.178 32.12C229.389 33.08 228.386 33.8373 227.17 34.392C225.954 34.9467 224.61 35.224 223.138 35.224C221.367 35.224 219.789 34.8507 218.402 34.104C217.037 33.3573 215.959 32.2907 215.17 30.904C214.402 29.5173 214.018 27.8853 214.018 26.008C214.018 24.1307 214.402 22.5093 215.17 21.144C215.938 19.7573 217.005 18.6907 218.37 17.944C219.757 17.1973 221.346 16.824 223.138 16.824C224.909 16.824 226.477 17.1867 227.842 17.912C229.207 18.6373 230.274 19.6827 231.042 21.048C231.81 22.392 232.194 23.9813 232.194 25.816ZM225.794 24.248C225.794 23.48 225.538 22.8827 225.026 22.456C224.514 22.008 223.874 21.784 223.106 21.784C222.338 21.784 221.709 21.9973 221.218 22.424C220.727 22.8293 220.407 23.4373 220.258 24.248H225.794ZM233.737 26.008C233.737 24.152 234.067 22.5307 234.729 21.144C235.411 19.7573 236.339 18.6907 237.513 17.944C238.686 17.1973 239.987 16.824 241.417 16.824C242.569 16.824 243.593 17.0693 244.489 17.56C245.406 18.0293 246.121 18.68 246.633 19.512V11.32H252.937V35H246.633V32.504C246.142 33.336 245.449 33.9973 244.553 34.488C243.657 34.9787 242.601 35.224 241.385 35.224C239.955 35.224 238.654 34.8507 237.481 34.104C236.329 33.3573 235.411 32.2907 234.729 30.904C234.067 29.496 233.737 27.864 233.737 26.008ZM246.665 26.008C246.665 24.856 246.345 23.9493 245.705 23.288C245.086 22.6267 244.318 22.296 243.401 22.296C242.462 22.296 241.683 22.6267 241.065 23.288C240.446 23.928 240.137 24.8347 240.137 26.008C240.137 27.16 240.446 28.0773 241.065 28.76C241.683 29.4213 242.462 29.752 243.401 29.752C244.318 29.752 245.086 29.4213 245.705 28.76C246.345 28.0987 246.665 27.1813 246.665 26.008ZM259.679 15.384C258.569 15.384 257.673 15.0853 256.991 14.488C256.329 13.8693 255.999 13.1013 255.999 12.184C255.999 11.2453 256.329 10.4667 256.991 9.848C257.673 9.22933 258.569 8.92 259.679 8.92C260.767 8.92 261.641 9.22933 262.303 9.848C262.985 10.4667 263.327 11.2453 263.327 12.184C263.327 13.1013 262.985 13.8693 262.303 14.488C261.641 15.0853 260.767 15.384 259.679 15.384ZM262.783 17.048V35H256.511V17.048H262.783ZM265.331 26.008C265.331 24.152 265.661 22.5307 266.323 21.144C267.005 19.7573 267.933 18.6907 269.107 17.944C270.28 17.1973 271.581 16.824 273.01 16.824C274.163 16.824 275.187 17.0693 276.083 17.56C277 18.0293 277.715 18.68 278.227 19.512V11.32H284.531V35H278.227V32.504C277.736 33.336 277.043 33.9973 276.147 34.488C275.251 34.9787 274.195 35.224 272.979 35.224C271.549 35.224 270.248 34.8507 269.075 34.104C267.923 33.3573 267.005 32.2907 266.323 30.904C265.661 29.496 265.331 27.864 265.331 26.008ZM278.259 26.008C278.259 24.856 277.939 23.9493 277.299 23.288C276.68 22.6267 275.912 22.296 274.995 22.296C274.056 22.296 273.277 22.6267 272.659 23.288C272.04 23.928 271.731 24.8347 271.731 26.008C271.731 27.16 272.04 28.0773 272.659 28.76C273.277 29.4213 274.056 29.752 274.995 29.752C275.912 29.752 276.68 29.4213 277.299 28.76C277.939 28.0987 278.259 27.1813 278.259 26.008ZM296.457 35.224C294.665 35.224 293.054 34.8507 291.625 34.104C290.217 33.3573 289.107 32.2907 288.297 30.904C287.486 29.5173 287.081 27.8853 287.081 26.008C287.081 24.152 287.486 22.5307 288.297 21.144C289.129 19.7573 290.249 18.6907 291.657 17.944C293.086 17.1973 294.697 16.824 296.489 16.824C298.281 16.824 299.881 17.1973 301.289 17.944C302.718 18.6907 303.838 19.7573 304.649 21.144C305.481 22.5307 305.897 24.152 305.897 26.008C305.897 27.864 305.481 29.496 304.649 30.904C303.838 32.2907 302.718 33.3573 301.289 34.104C299.859 34.8507 298.249 35.224 296.457 35.224ZM296.457 29.784C297.331 29.784 298.057 29.464 298.633 28.824C299.23 28.1627 299.529 27.224 299.529 26.008C299.529 24.792 299.23 23.864 298.633 23.224C298.057 22.584 297.342 22.264 296.489 22.264C295.635 22.264 294.921 22.584 294.345 23.224C293.769 23.864 293.481 24.792 293.481 26.008C293.481 27.2453 293.758 28.184 294.312 28.824C294.867 29.464 295.582 29.784 296.457 29.784Z" fill="#61A120"/>
<rect x="125" y="57" width="57" height="4" fill="#9758A6"/>
</svg>
